<?xml version="1.0" encoding="UTF-8" standalone="no"?>
<svg
   xmlns:osb="http://www.openswatchbook.org/uri/2009/osb"
   xmlns:dc="http://purl.org/dc/elements/1.1/"
   xmlns:cc="http://creativecommons.org/ns#"
   xmlns:rdf="http://www.w3.org/1999/02/22-rdf-syntax-ns#"
   xmlns:svg="http://www.w3.org/2000/svg"
   xmlns="http://www.w3.org/2000/svg"
   xmlns:sodipodi="http://sodipodi.sourceforge.net/DTD/sodipodi-0.dtd"
   xmlns:inkscape="http://www.inkscape.org/namespaces/inkscape"
   viewBox="0 0 100 70"
   version="1.1"
   id="svg13"
   sodipodi:docname="Ikona Alkowa.svg"
   inkscape:version="1.0.1 (3bc2e813f5, 2020-09-07)"
   width="100"
   height="70">
  <metadata
     id="metadata19">
    <rdf:RDF>
      <cc:Work
         rdf:about="">
        <dc:format>image/svg+xml</dc:format>
        <dc:type
           rdf:resource="http://purl.org/dc/dcmitype/StillImage" />
        <dc:title></dc:title>
      </cc:Work>
    </rdf:RDF>
  </metadata>
  <defs
     id="defs17">
    <linearGradient
       id="linearGradient850"
       osb:paint="solid">
      <stop
         style="stop-color:#000000;stop-opacity:1;"
         offset="0"
         id="stop848" />
    </linearGradient>
  </defs>
  <sodipodi:namedview
     pagecolor="#ffffff"
     bordercolor="#666666"
     borderopacity="1"
     objecttolerance="10"
     gridtolerance="10"
     guidetolerance="10"
     inkscape:pageopacity="0"
     inkscape:pageshadow="2"
     inkscape:window-width="1920"
     inkscape:window-height="1001"
     id="namedview15"
     showgrid="false"
     inkscape:zoom="2.4476075"
     inkscape:cx="25.148739"
     inkscape:cy="41.544586"
     inkscape:window-x="-9"
     inkscape:window-y="-9"
     inkscape:window-maximized="1"
     inkscape:current-layer="svg13" />
  <g
     data-name="Calque 2"
     id="Calque_2"
     transform="translate(-108.04753)">
    <path
       d="M 24.36,44.65 H 8.22 a 1.5,1.5 0 0 0 -1.5,1.5 v 11.07 a 1.5,1.5 0 0 0 1.5,1.5 h 16.14 a 1.5,1.5 0 0 0 1.5,-1.5 V 46.15 a 1.5,1.5 0 0 0 -1.5,-1.5 z m -1.5,11.07 H 9.72 v -8.07 h 13.14 z"
       id="path4" />
    <path
       d="M 46.84,44.65 H 30.7 a 1.5,1.5 0 0 0 -1.5,1.5 v 11.07 a 1.5,1.5 0 0 0 1.5,1.5 h 16.14 a 1.5,1.5 0 0 0 1.5,-1.5 V 46.15 a 1.5,1.5 0 0 0 -1.5,-1.5 z m -1.5,11.07 H 32.2 v -8.07 h 13.14 z"
       id="path6" />
    <path
       d="m 96,59.36 h -2.15 l -5.2,-9.21 H 90 a 4.92,4.92 0 0 0 4.28,-1.81 5.11,5.11 0 0 0 0.5,-4.31 c 0,-0.12 -3.51,-11.94 -11,-11.94 H 1.72 a 1.5,1.5 0 1 0 0,3 h 2.87 v 2 H 1.72 a 1.5,1.5 0 0 0 -1.5,1.5 v 36.6 a 1.5,1.5 0 0 0 1.5,1.5 h 7.74 a 7.75,7.75 0 0 0 15.41,0 h 51.37 a 7.75,7.75 0 0 0 15.41,0 h 6.63 a 1.5,1.5 0 0 0 1.5,-1.5 V 63.12 A 3.75,3.75 0 0 0 96,59.36 Z m -7.34,16.5 a 4.75,4.75 0 1 1 -4.75,-4.75 4.76,4.76 0 0 1 4.78,4.75 z M 85.21,50.15 90.4,59.36 H 77.69 l -0.8,-9.21 z m 11.57,13 v 10.52 h -5.41 a 7.74,7.74 0 0 0 -14.86,0 H 72.44 V 50.15 h 1.44 L 74.82,61 a 1.49,1.49 0 0 0 1.49,1.37 H 96 a 0.76,0.76 0 0 1 0.78,0.75 z m -77.25,-26 v -2 h 8.94 v 2 z m 11.94,-2 h 8.94 v 2 h -8.94 z m 11.94,0 h 3.82 l -2.73,2 h -1.09 z m -35.82,0 h 8.94 v 2 H 7.59 Z m 14.33,40.71 a 4.75,4.75 0 1 1 -4.75,-4.75 4.76,4.76 0 0 1 4.75,4.75 z m 9.48,-2.93 v -5.39 h 5.39 v 5.39 z m 23.35,0.74 v -26 h 9.07 v 26 z m 14.69,-25 v 25 H 66.82 V 46.21 a 1.5,1.5 0 0 0 -1.5,-1.5 H 53.25 a 1.5,1.5 0 0 0 -1.5,1.5 v 27.46 h -12 V 66 a 1.5,1.5 0 0 0 -1.5,-1.5 H 29.9 A 1.5,1.5 0 0 0 28.4,66 v 7.63 h -3.8 a 7.74,7.74 0 0 0 -14.86,0 H 3.22 V 40.07 H 45 a 1.51,1.51 0 0 0 0.88,-0.28 l 6.48,-4.7 H 83.8 c 4,0 7.17,6.58 8.11,9.83 a 2.25,2.25 0 0 1 -0.09,1.68 c -0.34,0.48 -1.3,0.55 -1.83,0.55 h -19 a 1.5,1.5 0 0 0 -1.55,1.5 z"
       id="path8" />
    <path
       d="m 85.44,41.45 a 1.5,1.5 0 0 0 -1.5,-1.5 H 70.45 a 1.5,1.5 0 0 0 0,3 h 13.49 a 1.5,1.5 0 0 0 1.5,-1.5 z"
       id="path10" />
  </g>
  <g
     id="g958"
     transform="translate(0.06792063,-22.573242)">
    <path
       style="color:#000000;font-style:normal;font-variant:normal;font-weight:normal;font-stretch:normal;font-size:medium;line-height:normal;font-family:sans-serif;font-variant-ligatures:normal;font-variant-position:normal;font-variant-caps:normal;font-variant-numeric:normal;font-variant-alternates:normal;font-variant-east-asian:normal;font-feature-settings:normal;font-variation-settings:normal;text-indent:0;text-align:start;text-decoration:none;text-decoration-line:none;text-decoration-style:solid;text-decoration-color:#000000;letter-spacing:normal;word-spacing:normal;text-transform:none;writing-mode:lr-tb;direction:ltr;text-orientation:mixed;dominant-baseline:auto;baseline-shift:baseline;text-anchor:start;white-space:normal;shape-padding:0;shape-margin:0;inline-size:0;clip-rule:nonzero;display:inline;overflow:visible;visibility:visible;opacity:1;isolation:auto;mix-blend-mode:normal;color-interpolation:sRGB;color-interpolation-filters:linearRGB;solid-color:#000000;solid-opacity:1;vector-effect:none;fill-opacity:1;fill-rule:nonzero;stroke:none;stroke-width:3;stroke-linecap:round;stroke-linejoin:round;stroke-miterlimit:4;stroke-dasharray:none;stroke-dashoffset:0;stroke-opacity:1;color-rendering:auto;image-rendering:auto;shape-rendering:auto;text-rendering:auto;enable-background:accumulate;stop-color:#000000;stop-opacity:1"
       d="m 51.865234,31.867188 a 1.50015,1.50015 0 0 0 -0.976562,0.353515 l -6.080078,5.136719 H 1.5898438 a 1.50015,1.50015 0 0 0 -1.50000005,1.511719 l 0.28710937,35.966797 a 1.50015,1.50015 0 0 0 1.49999998,1.488281 h 6.96875 c 0.3058335,4.259595 3.7928489,7.678282 8.1269529,7.677734 4.334105,5.48e-4 7.82112,-3.418139 8.126953,-7.677734 h 50.859375 c 0.342334,4.223215 3.801802,7.604764 8.109375,7.605469 4.308445,5.44e-4 7.768861,-3.381434 8.111329,-7.605469 h 5.755859 a 1.50015,1.50015 0 0 0 1.492187,-1.34375 c 0,0 0.271865,-2.581183 0.333985,-5.457031 0.03106,-1.437925 0.01115,-2.950923 -0.13086,-4.306641 -0.142011,-1.355719 -0.278747,-2.527241 -1.082031,-3.578125 a 1.50015,1.50015 0 0 0 -0.695312,-0.50586 c -1.305025,-0.458131 -2.740933,-0.564216 -3.898438,-0.626953 -0.430864,-0.02335 -0.744844,-0.0331 -1.052734,-0.04492 L 88.53125,50.46875 h 8.539062 a 1.50015,1.50015 0 0 0 1.441407,-1.912109 c 0,0 -1.137675,-3.995616 -2.964844,-8.029297 -0.913584,-2.016841 -1.991718,-4.050751 -3.271484,-5.673828 -1.279766,-1.623077 -2.845483,-3.008309 -4.900391,-2.986328 -11.973612,0.128073 -35.509766,-10e-7 -35.509766,0 z m 0.542969,3 c 0.7189,0.0039 23.150227,0.126727 34.998047,0 0.545018,-0.0058 1.489057,0.546748 2.511719,1.84375 1.022661,1.297001 2.040128,3.164185 2.896484,5.054687 1.282641,2.831575 1.716322,4.444602 2.107422,5.703125 h -8.685547 a 1.50015,1.50015 0 0 0 -1.375,2.101562 l 5.640625,12.894532 -0.06055,-0.164063 c 0.164895,0.541852 0.501217,0.757622 0.681641,0.865235 0.180424,0.107612 0.289775,0.138307 0.376953,0.164062 0.174355,0.05151 0.266412,0.0607 0.359375,0.07227 0.185927,0.02312 0.348559,0.03199 0.541016,0.04102 0.384913,0.01805 0.862095,0.02984 1.392578,0.05859 0.854326,0.0463 1.735301,0.200236 2.470703,0.373047 0.101054,0.279121 0.288763,0.7378 0.384766,1.654297 0.120156,1.147084 0.142716,2.566986 0.113281,3.929687 -0.04368,2.02234 -0.159754,3.025113 -0.236328,3.865235 H 90.75195 a 1.50015,1.50015 0 0 0 -1.488281,1.693359 c 0.02908,0.222901 0.04468,0.44904 0.04492,0.673828 -4.76e-4,2.911321 -2.328914,5.23865 -5.240235,5.238282 -2.910043,-4.76e-4 -5.236739,-2.326552 -5.238281,-5.236329 v -0.002 c 2.42e-4,-0.224788 0.01584,-0.450927 0.04492,-0.673828 A 1.50015,1.50015 0 0 0 77.386719,73.324219 H 23.646484 a 1.50015,1.50015 0 0 0 -1.484375,1.710937 c 0.03422,0.241951 0.05063,0.484157 0.05078,0.728516 -4.76e-4,2.91132 -2.328914,5.238649 -5.240235,5.238281 -2.91132,3.68e-4 -5.239758,-2.326961 -5.240234,-5.238281 1.56e-4,-0.244358 0.01656,-0.486565 0.05078,-0.728516 A 1.50015,1.50015 0 0 0 10.298828,73.324219 H 3.3652344 L 3.1015625,40.357422 H 45.357422 a 1.50015,1.50015 0 0 0 0.96875,-0.353516 z"
       id="path918" />
    <path
       style="color:#000000;font-style:normal;font-variant:normal;font-weight:normal;font-stretch:normal;font-size:medium;line-height:normal;font-family:sans-serif;font-variant-ligatures:normal;font-variant-position:normal;font-variant-caps:normal;font-variant-numeric:normal;font-variant-alternates:normal;font-variant-east-asian:normal;font-feature-settings:normal;font-variation-settings:normal;text-indent:0;text-align:start;text-decoration:none;text-decoration-line:none;text-decoration-style:solid;text-decoration-color:#000000;letter-spacing:normal;word-spacing:normal;text-transform:none;writing-mode:lr-tb;direction:ltr;text-orientation:mixed;dominant-baseline:auto;baseline-shift:baseline;text-anchor:start;white-space:normal;shape-padding:0;shape-margin:0;inline-size:0;clip-rule:nonzero;display:inline;overflow:visible;visibility:visible;opacity:1;isolation:auto;mix-blend-mode:normal;color-interpolation:sRGB;color-interpolation-filters:linearRGB;solid-color:#000000;solid-opacity:1;vector-effect:none;fill-opacity:1;fill-rule:nonzero;stroke:none;stroke-width:3;stroke-linecap:butt;stroke-linejoin:round;stroke-miterlimit:4;stroke-dasharray:none;stroke-dashoffset:0;stroke-opacity:1;color-rendering:auto;image-rendering:auto;shape-rendering:auto;text-rendering:auto;enable-background:accumulate;stop-color:#000000;stop-opacity:1"
       d="m 51.517578,44.146484 a 1.50015,1.50015 0 0 0 -1.498047,1.457032 c 0,0 -0.239398,8.6767 -0.398437,28.77539 l 3,0.02344 c 0.150831,-19.061452 0.354791,-26.416165 0.376953,-27.25586 H 62.875 V 74.96875 h 3 V 45.646484 a 1.50015,1.50015 0 0 0 -1.5,-1.5 z"
       id="path944" />
    <path
       style="color:#000000;font-style:normal;font-variant:normal;font-weight:normal;font-stretch:normal;font-size:medium;line-height:normal;font-family:sans-serif;font-variant-ligatures:normal;font-variant-position:normal;font-variant-caps:normal;font-variant-numeric:normal;font-variant-alternates:normal;font-variant-east-asian:normal;font-feature-settings:normal;font-variation-settings:normal;text-indent:0;text-align:start;text-decoration:none;text-decoration-line:none;text-decoration-style:solid;text-decoration-color:#000000;letter-spacing:normal;word-spacing:normal;text-transform:none;writing-mode:lr-tb;direction:ltr;text-orientation:mixed;dominant-baseline:auto;baseline-shift:baseline;text-anchor:start;white-space:normal;shape-padding:0;shape-margin:0;inline-size:0;clip-rule:nonzero;display:inline;overflow:visible;visibility:visible;opacity:1;isolation:auto;mix-blend-mode:normal;color-interpolation:sRGB;color-interpolation-filters:linearRGB;solid-color:#000000;solid-opacity:1;vector-effect:none;fill-opacity:1;fill-rule:nonzero;stroke:none;stroke-width:2.60944;stroke-linecap:square;stroke-linejoin:round;stroke-miterlimit:4;stroke-dasharray:none;stroke-dashoffset:0;stroke-opacity:1;paint-order:markers fill stroke;color-rendering:auto;image-rendering:auto;shape-rendering:auto;text-rendering:auto;enable-background:accumulate;stop-color:#000000;stop-opacity:1"
       d="m 8.9042969,45.15625 a 1.3048505,1.3048505 0 0 0 -1.3046875,1.304688 v 10.646484 a 1.3048505,1.3048505 0 0 0 1.3046875,1.304687 H 24.029297 a 1.3048505,1.3048505 0 0 0 1.304687,-1.304687 V 46.460938 A 1.3048505,1.3048505 0 0 0 24.029297,45.15625 Z m 1.3046871,2.609375 h 12.515625 v 8.037109 H 10.208984 Z"
       id="path932" />
    <path
       style="color:#000000;font-style:normal;font-variant:normal;font-weight:normal;font-stretch:normal;font-size:medium;line-height:normal;font-family:sans-serif;font-variant-ligatures:normal;font-variant-position:normal;font-variant-caps:normal;font-variant-numeric:normal;font-variant-alternates:normal;font-variant-east-asian:normal;font-feature-settings:normal;font-variation-settings:normal;text-indent:0;text-align:start;text-decoration:none;text-decoration-line:none;text-decoration-style:solid;text-decoration-color:#000000;letter-spacing:normal;word-spacing:normal;text-transform:none;writing-mode:lr-tb;direction:ltr;text-orientation:mixed;dominant-baseline:auto;baseline-shift:baseline;text-anchor:start;white-space:normal;shape-padding:0;shape-margin:0;inline-size:0;clip-rule:nonzero;display:inline;overflow:visible;visibility:visible;opacity:1;isolation:auto;mix-blend-mode:normal;color-interpolation:sRGB;color-interpolation-filters:linearRGB;solid-color:#000000;solid-opacity:1;vector-effect:none;fill-opacity:1;fill-rule:nonzero;stroke:none;stroke-width:3;stroke-linecap:butt;stroke-linejoin:round;stroke-miterlimit:4;stroke-dasharray:none;stroke-dashoffset:0;stroke-opacity:1;color-rendering:auto;image-rendering:auto;shape-rendering:auto;text-rendering:auto;enable-background:accumulate;stop-color:#000000;stop-opacity:1"
       d="m 73.0625,48.414062 v 13.449219 a 1.50015,1.50015 0 0 0 1.5,1.5 h 17.314453 v -3 H 76.0625 V 48.414062 Z"
       id="path948" />
    <path
       style="color:#000000;font-style:normal;font-variant:normal;font-weight:normal;font-stretch:normal;font-size:medium;line-height:normal;font-family:sans-serif;font-variant-ligatures:normal;font-variant-position:normal;font-variant-caps:normal;font-variant-numeric:normal;font-variant-alternates:normal;font-variant-east-asian:normal;font-feature-settings:normal;font-variation-settings:normal;text-indent:0;text-align:start;text-decoration:none;text-decoration-line:none;text-decoration-style:solid;text-decoration-color:#000000;letter-spacing:normal;word-spacing:normal;text-transform:none;writing-mode:lr-tb;direction:ltr;text-orientation:mixed;dominant-baseline:auto;baseline-shift:baseline;text-anchor:start;white-space:normal;shape-padding:0;shape-margin:0;inline-size:0;clip-rule:nonzero;display:inline;overflow:visible;visibility:visible;opacity:1;isolation:auto;mix-blend-mode:normal;color-interpolation:sRGB;color-interpolation-filters:linearRGB;solid-color:#000000;solid-opacity:1;vector-effect:none;fill-opacity:1;fill-rule:nonzero;stroke:none;stroke-width:3;stroke-linecap:butt;stroke-linejoin:round;stroke-miterlimit:4;stroke-dasharray:none;stroke-dashoffset:0;stroke-opacity:1;color-rendering:auto;image-rendering:auto;shape-rendering:auto;text-rendering:auto;enable-background:accumulate;stop-color:#000000;stop-opacity:1"
       d="m 69.455078,47.46875 a 1.50015,1.50015 0 0 0 -1.5,1.5 v 25.388672 h 3 V 50.46875 h 15.28125 v -3 z"
       id="path940" />
    <path
       style="color:#000000;font-style:normal;font-variant:normal;font-weight:normal;font-stretch:normal;font-size:medium;line-height:normal;font-family:sans-serif;font-variant-ligatures:normal;font-variant-position:normal;font-variant-caps:normal;font-variant-numeric:normal;font-variant-alternates:normal;font-variant-east-asian:normal;font-feature-settings:normal;font-variation-settings:normal;text-indent:0;text-align:start;text-decoration:none;text-decoration-line:none;text-decoration-style:solid;text-decoration-color:#000000;letter-spacing:normal;word-spacing:normal;text-transform:none;writing-mode:lr-tb;direction:ltr;text-orientation:mixed;dominant-baseline:auto;baseline-shift:baseline;text-anchor:start;white-space:normal;shape-padding:0;shape-margin:0;inline-size:0;clip-rule:nonzero;display:inline;overflow:visible;visibility:visible;opacity:1;isolation:auto;mix-blend-mode:normal;color-interpolation:sRGB;color-interpolation-filters:linearRGB;solid-color:#000000;solid-opacity:1;vector-effect:none;fill-opacity:1;fill-rule:nonzero;stroke:none;stroke-width:2.60944;stroke-linecap:square;stroke-linejoin:round;stroke-miterlimit:4;stroke-dasharray:none;stroke-dashoffset:0;stroke-opacity:1;paint-order:markers fill stroke;color-rendering:auto;image-rendering:auto;shape-rendering:auto;text-rendering:auto;enable-background:accumulate;stop-color:#000000;stop-opacity:1"
       d="m 30.40625,45.083984 a 1.3048505,1.3048505 0 0 0 -1.304688,1.304688 v 10.646484 a 1.3048505,1.3048505 0 0 0 1.304688,1.304688 h 15.123047 a 1.3048505,1.3048505 0 0 0 1.304687,-1.304688 V 46.388672 a 1.3048505,1.3048505 0 0 0 -1.304687,-1.304688 z m 1.304688,2.609375 h 12.513671 v 8.03711 H 31.710938 Z"
       id="path927" />
    <path
       style="color:#000000;font-style:normal;font-variant:normal;font-weight:normal;font-stretch:normal;font-size:medium;line-height:normal;font-family:sans-serif;font-variant-ligatures:normal;font-variant-position:normal;font-variant-caps:normal;font-variant-numeric:normal;font-variant-alternates:normal;font-variant-east-asian:normal;font-feature-settings:normal;font-variation-settings:normal;text-indent:0;text-align:start;text-decoration:none;text-decoration-line:none;text-decoration-style:solid;text-decoration-color:#000000;letter-spacing:normal;word-spacing:normal;text-transform:none;writing-mode:lr-tb;direction:ltr;text-orientation:mixed;dominant-baseline:auto;baseline-shift:baseline;text-anchor:start;white-space:normal;shape-padding:0;shape-margin:0;inline-size:0;clip-rule:nonzero;display:inline;overflow:visible;visibility:visible;opacity:1;isolation:auto;mix-blend-mode:normal;color-interpolation:sRGB;color-interpolation-filters:linearRGB;solid-color:#000000;solid-opacity:1;vector-effect:none;fill-opacity:1;fill-rule:nonzero;stroke:none;stroke-width:3;stroke-linecap:round;stroke-linejoin:round;stroke-miterlimit:4;stroke-dasharray:none;stroke-dashoffset:0;stroke-opacity:1;color-rendering:auto;image-rendering:auto;shape-rendering:auto;text-rendering:auto;enable-background:accumulate;stop-color:#000000;stop-opacity:1"
       d="m 2.3105469,31.144531 a 1.5,1.5 0 0 0 -1.50000002,1.5 1.5,1.5 0 0 0 1.50000002,1.5 H 41.890625 a 1.5,1.5 0 0 0 1.5,-1.5 1.5,1.5 0 0 0 -1.5,-1.5 z"
       id="path922" />
    <path
       style="color:#000000;font-style:normal;font-variant:normal;font-weight:normal;font-stretch:normal;font-size:medium;line-height:normal;font-family:sans-serif;font-variant-ligatures:normal;font-variant-position:normal;font-variant-caps:normal;font-variant-numeric:normal;font-variant-alternates:normal;font-variant-east-asian:normal;font-feature-settings:normal;font-variation-settings:normal;text-indent:0;text-align:start;text-decoration:none;text-decoration-line:none;text-decoration-style:solid;text-decoration-color:#000000;letter-spacing:normal;word-spacing:normal;text-transform:none;writing-mode:lr-tb;direction:ltr;text-orientation:mixed;dominant-baseline:auto;baseline-shift:baseline;text-anchor:start;white-space:normal;shape-padding:0;shape-margin:0;inline-size:0;clip-rule:nonzero;display:inline;overflow:visible;visibility:visible;opacity:1;isolation:auto;mix-blend-mode:normal;color-interpolation:sRGB;color-interpolation-filters:linearRGB;solid-color:#000000;solid-opacity:1;vector-effect:none;fill-opacity:1;fill-rule:nonzero;stroke:none;stroke-width:3;stroke-linecap:round;stroke-linejoin:miter;stroke-miterlimit:4;stroke-dasharray:none;stroke-dashoffset:0;stroke-opacity:1;color-rendering:auto;image-rendering:auto;shape-rendering:auto;text-rendering:auto;enable-background:accumulate;stop-color:#000000;stop-opacity:1"
       d="m 71.212891,41.400391 a 1.5,1.5 0 0 0 -1.5,1.5 1.5,1.5 0 0 0 1.5,1.5 h 15.023437 a 1.5,1.5 0 0 0 1.5,-1.5 1.5,1.5 0 0 0 -1.5,-1.5 z"
       id="path936" />
  </g>
</svg>
