<?xml version="1.0" encoding="UTF-8" standalone="no"?>
<svg
   xmlns:dc="http://purl.org/dc/elements/1.1/"
   xmlns:cc="http://creativecommons.org/ns#"
   xmlns:rdf="http://www.w3.org/1999/02/22-rdf-syntax-ns#"
   xmlns:svg="http://www.w3.org/2000/svg"
   xmlns="http://www.w3.org/2000/svg"
   xmlns:sodipodi="http://sodipodi.sourceforge.net/DTD/sodipodi-0.dtd"
   xmlns:inkscape="http://www.inkscape.org/namespaces/inkscape"
   viewBox="0 0 100 80"
   version="1.1"
   id="svg9"
   sodipodi:docname="Ikona Przyczepa.svg"
   width="100"
   height="80"
   inkscape:version="1.0.1 (3bc2e813f5, 2020-09-07)">
  <metadata
     id="metadata15">
    <rdf:RDF>
      <cc:Work
         rdf:about="">
        <dc:format>image/svg+xml</dc:format>
        <dc:type
           rdf:resource="http://purl.org/dc/dcmitype/StillImage" />
        <dc:title></dc:title>
      </cc:Work>
    </rdf:RDF>
  </metadata>
  <defs
     id="defs13" />
  <sodipodi:namedview
     pagecolor="#ffffff"
     bordercolor="#666666"
     borderopacity="1"
     objecttolerance="10"
     gridtolerance="10"
     guidetolerance="10"
     inkscape:pageopacity="0"
     inkscape:pageshadow="2"
     inkscape:window-width="1920"
     inkscape:window-height="1001"
     id="namedview11"
     showgrid="false"
     inkscape:zoom="4.15"
     inkscape:cx="54.377105"
     inkscape:cy="29.865359"
     inkscape:window-x="-9"
     inkscape:window-y="-9"
     inkscape:window-maximized="1"
     inkscape:current-layer="Calque_2" />
  <g
     data-name="Calque 2"
     id="Calque_2"
     transform="translate(0,-8)">
    <path
       d="m 19.55,52.42 h 27.5 a 1.5,1.5 0 0 0 1.5,-1.5 V 35.5 A 1.5,1.5 0 0 0 47.05,34 h -27.5 a 1.5,1.5 0 0 0 -1.5,1.5 v 15.42 a 1.5,1.5 0 0 0 1.5,1.5 z M 21.05,37 h 24.5 v 12.42 h -24.5 z"
       id="path4" />
    <g
       id="g847"
       transform="translate(-0.13574172,-3.7880232)">
      <path
         id="path6"
         d="M 28.140625,18 C 13.328085,18.016608 1.3227796,30.017545 1.3007812,44.830078 v 24.5 c 0.00551,4.692136 3.807864,8.49449 8.5,8.5 h 1.4785158 c 2.560013,10.327958 17.240768,10.327958 19.800781,0 h 51.220703 1 c 0.129116,0.01513 0.259556,0.01513 0.388672,0 h 13.78125 c 1.999999,0 1.999999,-3 0,-3 h -8.701172 c 1.303629,-1.53477 2.013294,-3.48635 2,-5.5 V 26.5 c -0.0054,-4.679979 -3.788822,-8.477318 -8.46875,-8.5 z m -0.05078,3 c 0.01693,-1.8e-5 0.03385,-1.8e-5 0.05078,0 h 54.160156 c 3.037566,0 5.5,2.462434 5.5,5.5 v 33 H 87.640625 79.800781 V 37.080078 c 0,-5.014792 -4.06529,-9.080074 -9.080078,-9.080074 -5.014788,0 -9.080078,4.065282 -9.080078,9.080074 V 59.5 H 4.3007812 V 44.830078 C 4.3171993,31.691897 14.95171,21.03905 28.089844,21 Z m 42.617187,10 c 3.36329,-0.0076 6.093802,2.716779 6.09375,6.080078 V 68.5 H 64.640625 V 37.080078 C 64.640574,33.727458 67.354419,31.007496 70.707032,31 Z M 4.3007812,62.5 H 61.640625 V 70 c 0,0.828427 0.671573,1.5 1.5,1.5 h 15.160156 c 0.828427,0 1.5,-0.671573 1.5,-1.5 v -7.5 h 7.839844 0.160156 v 6.849609 c 0,3.037566 -2.462434,5.5 -5.5,5.5 L 28.946183,74.833984 C 28.767844,75.729855 28.317981,77.170743 28,77.830078 c -1.040306,2.866233 -3.771181,4.768149 -6.820312,4.75 -3.030532,-0.0033 -5.43736,-1.922616 -6.769532,-4.75 l -0.788041,-3.040644 -3.8213338,0.0406 c -3.0373947,0.03227 -5.5,-2.462434 -5.5,-5.5 z"
         sodipodi:nodetypes="cccccccccsscccccccsscccsssccccccccccccsssscccscccccccscc" />
    </g>
  </g>
</svg>
